<?xml version="1.0" encoding="UTF-8" standalone="no"?><!DOCTYPE svg PUBLIC "-//W3C//DTD SVG 1.1//EN" "http://www.w3.org/Graphics/SVG/1.1/DTD/svg11.dtd"><svg width="100%" height="100%" viewBox="0 0 160 160" version="1.1" xmlns="http://www.w3.org/2000/svg" xmlns:xlink="http://www.w3.org/1999/xlink" xml:space="preserve" xmlns:serif="http://www.serif.com/" style="fill-rule:evenodd;clip-rule:evenodd;stroke-linecap:round;stroke-linejoin:round;stroke-miterlimit:1.5;"><g><path d="M117.88,16.339c7.009,-7.009 18.373,-7.009 25.382,0c0.001,0.001 0.002,0.002 0.003,0.003c7.009,7.009 7.009,18.373 -0,25.382c-15.038,15.038 -38.078,38.078 -38.078,38.078c-0,-0 23.04,23.04 38.078,38.078c7.009,7.009 7.009,18.373 -0,25.382c-0.001,0.001 -0.002,0.002 -0.003,0.003c-7.009,7.009 -18.373,7.009 -25.382,-0c-15.038,-15.038 -38.078,-38.078 -38.078,-38.078c-0,-0 -23.04,23.04 -38.078,38.078c-7.009,7.009 -18.373,7.009 -25.382,-0c-0.001,-0.001 -0.002,-0.002 -0.003,-0.003c-7.009,-7.009 -7.009,-18.373 0,-25.382c15.038,-15.038 38.078,-38.078 38.078,-38.078c0,-0 -23.04,-23.04 -38.078,-38.078c-7.009,-7.009 -7.009,-18.373 0,-25.382c0.001,-0.001 0.002,-0.002 0.003,-0.003c7.009,-7.009 18.373,-7.009 25.382,0c15.038,15.038 38.078,38.078 38.078,38.078c-0,0 23.04,-23.04 38.078,-38.078Z" style="fill:none;stroke:#000;stroke-width:7.3px;"/><path d="M54.417,79.802l25.385,-25.385l25.385,25.385l-25.385,25.385l-25.385,-25.385Z" style="fill:none;stroke:#000;stroke-width:7.3px;"/></g><rect x="6.426" y="6.426" width="146.751" height="146.751" style="fill:#fff;fill-opacity:0;"/></svg>