<?xml version="1.0" encoding="UTF-8" standalone="no"?><!DOCTYPE svg PUBLIC "-//W3C//DTD SVG 1.1//EN" "http://www.w3.org/Graphics/SVG/1.1/DTD/svg11.dtd"><svg width="100%" height="100%" viewBox="0 0 181 181" version="1.1" xmlns="http://www.w3.org/2000/svg" xmlns:xlink="http://www.w3.org/1999/xlink" xml:space="preserve" xmlns:serif="http://www.serif.com/" style="fill-rule:evenodd;clip-rule:evenodd;stroke-linejoin:round;stroke-miterlimit:2;"><path d="M0,180.81l0,-180.81l89.355,0c15.727,0 27.738,0.69 36.032,2.07c11.634,1.775 21.383,5.151 29.246,10.129c7.864,4.978 14.193,11.953 18.986,20.924c4.794,8.97 7.191,18.828 7.191,29.574c-0,18.434 -6.41,34.034 -19.229,46.8c-12.818,12.766 -35.978,19.149 -69.48,19.149l-60.754,0l-0,52.164l-31.347,-0Zm53.619,-155.229l0,-25.581l-53.619,0l0,103.125l53.619,0l0,-0.06l38.967,-0c20.252,-0 34.632,-3.45 43.142,-10.351c8.51,-6.901 12.765,-16.611 12.765,-29.13c0,-9.07 -2.504,-16.833 -7.513,-23.29c-5.009,-6.457 -11.607,-10.72 -19.794,-12.79c-5.278,-1.282 -15.027,-1.923 -29.246,-1.923l-38.321,0Z" style="fill:#fff;fill-rule:nonzero;"/><path d="M0,0l0,180.81l89.355,-0c15.727,-0 27.738,-0.69 36.032,-2.071c11.634,-1.774 21.383,-5.15 29.246,-10.129c7.864,-4.978 14.193,-11.952 18.986,-20.923c4.794,-8.971 7.191,-18.829 7.191,-29.574c-0,-18.434 -6.41,-34.034 -19.229,-46.8c-12.818,-12.766 -35.978,-19.149 -69.48,-19.149l-60.754,-0l-0,-52.164l-31.347,-0Zm53.619,155.228l0,25.582l-53.619,-0l0,-103.126l53.619,0l0,0.061l38.967,-0c20.252,-0 34.632,3.45 43.142,10.351c8.51,6.9 12.765,16.61 12.765,29.13c0,9.069 -2.504,16.832 -7.513,23.289c-5.009,6.457 -11.607,10.721 -19.794,12.791c-5.278,1.282 -15.027,1.922 -29.246,1.922l-38.321,0Z" style="fill:#fff;fill-rule:nonzero;"/></svg>